<?xml version="1.0" encoding="UTF-8"?>
<svg id="Layer_1" xmlns="http://www.w3.org/2000/svg" version="1.1" viewBox="860 140 1100 1130">
  <!-- Generator: Adobe Illustrator 30.2.1, SVG Export Plug-In . SVG Version: 2.1.1 Build 1)  -->
  <defs>
    <style>
      path, polygon {
        fill: #fff;
      }
      .st0 {
        fill: #000;
      }
    </style>
  </defs>
  <path class="st0" d="M888,1244V171h1040v1073H888ZM1925.5,172H889v1069.7h1036.5V172Z"/>
  <path d="M1925.5,172v1069.7H889V172h1036.5ZM1563.9,810.2v89.7c0,0,44.5.1,44.5.1v89.7c0,0,45.2.2,45.2.2l.2,44.6h134.3s0-89.3,0-89.3h-44.7s-.3-45.3-.3-45.3h-44.5c0,0,0-133.8,0-133.8l-44.7-.3v-90.1s-45.2-.1-45.2-.1v-89.6s-44.6-.1-44.6-.1v-89c0,0-45.1,0-45.1,0v-89.7s-44.9,0-44.9,0v-45.1c0,0-134,0-134,0v45.1s-44.9,0-44.9,0v89.6s-45,0-45,0v88.9c0,0-44.7.1-44.7.1v89.8c0,0-45.2.1-45.2.1v90c.1,0-44.7,0-44.7,0v133.9c0,0-44.5.1-44.5.1v45.1s-45.1.1-45.1.1v89.3c0,0,134.6-.1,134.6-.1v-44.5s45.4-.2,45.4-.2v-89.7s44.1-.1,44.1-.1v-89.7c0,0,313.8,0,313.8,0Z"/>
  <path class="st0" d="M1563.9,810.2h-313.8s0,89.7,0,89.7h-44.1c0,.1,0,89.8,0,89.8l-45.4.2v44.5s-134.6.1-134.6.1v-89.3c0,0,45-.1,45-.1v-45.1s44.5-.1,44.5-.1v-133.9c0,0,44.9,0,44.9,0v-90c-.1,0,45.1-.1,45.1-.1v-89.8c0,0,44.6-.1,44.6-.1v-88.9c0,0,45.1,0,45.1,0v-89.6s44.8,0,44.8,0v-45.1s133.9,0,133.9,0v45.1c0,0,45,0,45,0v89.7s45,0,45,0v89c0,0,44.6.1,44.6.1v89.6s45.2.1,45.2.1v90.1s44.7.3,44.7.3v133.9c0,0,44.6,0,44.6,0l.3,45.3h44.7s0,89.3,0,89.3h-134.3s-.2-44.5-.2-44.5l-45.1-.2v-89.7c0,0-44.5-.1-44.5-.1v-89.7ZM1518.9,721.1v-45s-44.8-.2-44.8-.2v-89.7c0,0-44.4,0-44.4,0v-89.5c.1,0-45.4,0-45.4,0v89.3c0,0-44.3.2-44.3.2v89.5s-44.4,0-44.4,0v45.1s223.3,0,223.3,0Z"/>
  <polygon points="1518.9 721.1 1295.5 721.1 1295.5 676 1339.9 675.9 1339.9 586.4 1384.3 586.2 1384.2 496.9 1429.8 496.8 1429.7 586.3 1474.1 586.2 1474.1 675.9 1518.8 676.1 1518.9 721.1"/>
</svg>